HIERARCHY
ROOT hip
{
  OFFSET 0 0 0
  CHANNELS 6 Xposition Yposition Zposition Zrotation Yrotation Xrotation
  JOINT abdomen
  {
    OFFSET 0 20.6881 -0.73152
    CHANNELS 3 Zrotation Xrotation Yrotation
    JOINT chest
    {
      OFFSET 0 11.7043 -0.48768
      CHANNELS 3 Zrotation Xrotation Yrotation
      JOINT neck
      {
        OFFSET 0 22.1894 -2.19456
        CHANNELS 3 Zrotation Xrotation Yrotation
        JOINT head
        {
          OFFSET -0.24384 7.07133 1.2192
          CHANNELS 3 Zrotation Xrotation Yrotation
          JOINT leftEye
          {
            OFFSET 4.14528 8.04674 8.04672
            CHANNELS 3 Zrotation Xrotation Yrotation
            End Site
            {
              OFFSET 1 0 0
            }
          }
          JOINT rightEye
          {
            OFFSET -3.6576 8.04674 8.04672
            CHANNELS 3 Zrotation Xrotation Yrotation
            End Site
            {
              OFFSET 1 0 0
            }
          }
        }
      }
      JOINT rCollar
      {
        OFFSET -2.68224 19.2634 -4.8768
        CHANNELS 3 Zrotation Xrotation Yrotation
        JOINT rShldr
        {
          OFFSET -8.77824 -1.95073 1.46304
          CHANNELS 3 Zrotation Xrotation Yrotation
          JOINT rForeArm
          {
            OFFSET -28.1742 -1.7115 0.48768
            CHANNELS 3 Zrotation Xrotation Yrotation
            JOINT rHand
            {
              OFFSET -22.5879 0.773209 7.07136
              CHANNELS 3 Zrotation Xrotation Yrotation
              JOINT rThumb1
              {
                OFFSET -1.2192 -0.487915 3.41376
                CHANNELS 3 Zrotation Xrotation Yrotation
                JOINT rThumb2
                {
                  OFFSET -3.37035 -0.52449 3.41376
                  CHANNELS 3 Zrotation Xrotation Yrotation
                  End Site
                  {
                    OFFSET -1.78271 -1.18214 1.43049
                  }
                }
              }
              JOINT rIndex1
              {
                OFFSET -7.75947 0.938293 5.60832
                CHANNELS 3 Zrotation Xrotation Yrotation
                JOINT rIndex2
                {
                  OFFSET -2.54057 -0.884171 1.56538
                  CHANNELS 3 Zrotation Xrotation Yrotation
                  End Site
                  {
                    OFFSET -1.62519 -0.234802 1.16502
                  }
                }
              }
              JOINT rMid1
              {
                OFFSET -8.24714 1.18213 3.41376
                CHANNELS 3 Zrotation Xrotation Yrotation
                JOINT rMid2
                {
                  OFFSET -3.10165 -0.590103 1.0647
                  CHANNELS 3 Zrotation Xrotation Yrotation
                  End Site
                  {
                    OFFSET -2.48547 -0.328903 0.83742
                  }
                }
              }
              JOINT rRing1
              {
                OFFSET -8.82822 0.546677 1.51678
                CHANNELS 3 Zrotation Xrotation Yrotation
                JOINT rRing2
                {
                  OFFSET -2.60934 -0.819778 -0.0198488
                  CHANNELS 3 Zrotation Xrotation Yrotation
                  End Site
                  {
                    OFFSET -2.33842 -0.294052 0.168128
                  }
                }
              }
              JOINT rPinky1
              {
                OFFSET -8.27202 -0.0477905 -0.4584
                CHANNELS 3 Zrotation Xrotation Yrotation
                JOINT rPinky2
                {
                  OFFSET -1.82734 -0.647385 -0.700984
                  CHANNELS 3 Zrotation Xrotation Yrotation
                  End Site
                  {
                    OFFSET -1.69225 -0.51767 -0.607171
                  }
                }
              }
            }
          }
        }
      }
      JOINT lCollar
      {
        OFFSET 2.68224 19.2634 -4.8768
        CHANNELS 3 Zrotation Xrotation Yrotation
        JOINT lShldr
        {
          OFFSET 8.77824 -1.95073 1.46304
          CHANNELS 3 Zrotation Xrotation Yrotation
          JOINT lForeArm
          {
            OFFSET 28.1742 -1.7115 0.48768
            CHANNELS 3 Zrotation Xrotation Yrotation
            JOINT lHand
            {
              OFFSET 22.5879 0.773209 7.07136
              CHANNELS 3 Zrotation Xrotation Yrotation
              JOINT lThumb1
              {
                OFFSET 1.2192 -0.487915 3.41376
                CHANNELS 3 Zrotation Xrotation Yrotation
                JOINT lThumb2
                {
                  OFFSET 3.37035 -0.52449 3.41376
                  CHANNELS 3 Zrotation Xrotation Yrotation
                  End Site
                  {
                    OFFSET 1.78271 -1.18214 1.43049
                  }
                }
              }
              JOINT lIndex1
              {
                OFFSET 7.75947 0.938293 5.60832
                CHANNELS 3 Zrotation Xrotation Yrotation
                JOINT lIndex2
                {
                  OFFSET 2.54057 -0.884171 1.56538
                  CHANNELS 3 Zrotation Xrotation Yrotation
                  End Site
                  {
                    OFFSET 1.62519 -0.234802 1.16502
                  }
                }
              }
              JOINT lMid1
              {
                OFFSET 8.24714 1.18213 3.41376
                CHANNELS 3 Zrotation Xrotation Yrotation
                JOINT lMid2
                {
                  OFFSET 3.10165 -0.590103 1.0647
                  CHANNELS 3 Zrotation Xrotation Yrotation
                  End Site
                  {
                    OFFSET 2.48547 -0.328903 0.83742
                  }
                }
              }
              JOINT lRing1
              {
                OFFSET 8.82822 0.546677 1.51678
                CHANNELS 3 Zrotation Xrotation Yrotation
                JOINT lRing2
                {
                  OFFSET 2.60934 -0.819778 -0.0198488
                  CHANNELS 3 Zrotation Xrotation Yrotation
                  End Site
                  {
                    OFFSET 2.33842 -0.294052 0.168128
                  }
                }
              }
              JOINT lPinky1
              {
                OFFSET 8.27202 -0.0477905 -0.4584
                CHANNELS 3 Zrotation Xrotation Yrotation
                JOINT lPinky2
                {
                  OFFSET 1.82734 -0.647385 -0.700984
                  CHANNELS 3 Zrotation Xrotation Yrotation
                  End Site
                  {
                    OFFSET 1.69225 -0.51767 -0.607171
                  }
                }
              }
            }
          }
        }
      }
    }
  }
  JOINT rButtock
  {
    OFFSET -8.77824 4.35084 1.2192
    CHANNELS 3 Zrotation Xrotation Yrotation
    JOINT rThigh
    {
      OFFSET 0 -1.70687 -2.19456
      CHANNELS 3 Zrotation Xrotation Yrotation
      JOINT rShin
      {
        OFFSET 0 -36.8199 0.73152
        CHANNELS 3 Zrotation Xrotation Yrotation
        JOINT rFoot
        {
          OFFSET 0.73152 -45.1104 -5.12064
          CHANNELS 3 Zrotation Xrotation Yrotation
          End Site
          {
            OFFSET -1.1221 -3.69964 12.103
          }
        }
      }
    }
  }
  JOINT lButtock
  {
    OFFSET 8.77824 4.35084 1.2192
    CHANNELS 3 Zrotation Xrotation Yrotation
    JOINT lThigh
    {
      OFFSET 0 -1.70687 -2.19456
      CHANNELS 3 Zrotation Xrotation Yrotation
      JOINT lShin
      {
        OFFSET 0 -36.8199 0.73152
        CHANNELS 3 Zrotation Xrotation Yrotation
        JOINT lFoot
        {
          OFFSET -0.73152 -45.1104 -5.12064
          CHANNELS 3 Zrotation Xrotation Yrotation
          End Site
          {
            OFFSET 1.1221 -3.69964 12.103
          }
        }
      }
    }
  }
}
MOTION
Frames:	7
Frame Time:	0.00833333
11.589 85.2022 -92.6812 0.0 0.0 0.0 0.602243 -0.00285567 0.0171684 0.166047 -0.00431783 0.0287697 -2.82273e-15 0.0 -1.2424e-16 -8.34585e-15 3.18055e-15 -3.9291e-16 -0.0 0.0 0.0 -0.0 0.0 0.0 -1.39288e-15 -3.10601e-18 9.93923e-17 -2.70675e-14 -2.36057e-16 -5.96354e-16 -5.01236e-13 1.47697e-13 -3.81667e-14 -5.75678e-12 -1.66457e-13 -2.76708e-13 -1.35806e-11 -3.95301e-14 -6.61555e-13 -2.34606e-11 -6.67917e-14 -1.14261e-12 -1.35742e-11 -4.01545e-14 -6.67916e-13 7.73091 5.47488 0.417314 -1.35801e-11 -3.95581e-14 -6.55194e-13 2.90554 0.965183 0.102902 -1.3568e-11 -3.926e-14 -6.61555e-13 10.2786 0.731801 0.0259123 -1.35865e-11 -3.57812e-14 -6.48833e-13 2.22167 -0.733487 -0.20892 -1.48959e-15 -3.10601e-18 -1.98785e-16 -3.05992e-14 -3.41661e-16 -2.18663e-15 -5.03025e-13 -1.54058e-13 -1.59028e-14 -5.75892e-12 1.38354e-13 -2.8625e-13 -1.35815e-11 -3.26273e-14 -6.58375e-13 -2.34447e-11 -5.725e-14 -1.13864e-12 -1.35869e-11 -3.18055e-14 -6.58375e-13 -7.73091 5.47488 -0.417314 -1.35806e-11 -3.25013e-14 -6.61555e-13 -2.90554 0.965183 -0.102902 -1.35876e-11 -3.26007e-14 -6.6235e-13 -10.2786 0.731801 -0.0259123 -1.35754e-11 -3.18055e-14 -6.71097e-13 -2.22167 -0.733487 0.20892 -2.03217e-16 0.0 -3.88251e-19 0.985431 -4.60218 -0.0812406 -0.00202227 2.78417 -0.00803774 -0.532607 1.81803 0.0982239 2.03217e-16 0.0 3.88251e-19 -0.0701882 -2.29252 0.0218611 0.00846689 -1.39936 0.0723358 0.526203 3.69178 -0.13609
12.1703 83.2615 -93.9244 4.6369 -7.9938 2.6746 -1.54025 1.50192 0.412994 0.283654 -0.0204395 0.0816039 -0.752773 0.091795 -0.1832 0.0653396 -3.16893 -0.15218 -0.0 0.0 0.0 -0.0 0.0 0.0 -7.80837e-14 -1.78933e-14 3.76837e-14 21.4067 2.49257 -3.11099 -4.52574 -2.12098 6.99751 0.00257882 1.13014 0.15872 5.99419e-10 2.28459e-11 5.44306e-10 1.03781e-09 3.87886e-11 9.38527e-10 5.99423e-10 2.28461e-11 5.443e-10 7.73091 5.47488 0.417314 5.99419e-10 2.28465e-11 5.44313e-10 2.90554 0.965183 0.102902 5.99428e-10 2.28461e-11 5.44309e-10 10.2786 0.731801 0.0259123 5.99413e-10 2.28482e-11 5.44322e-10 2.22167 -0.733487 -0.20892 -7.81786e-14 -1.78929e-14 3.7441e-14 -13.8023 11.438 3.08755 18.2059 -15.789 -15.0957 -0.006789 -1.82831 0.25648 -3.02391e-11 1.02356e-09 3.04547e-10 -5.49514e-11 1.76351e-09 5.26901e-10 -3.02432e-11 1.02356e-09 3.04549e-10 -7.73091 5.47488 -0.417314 -3.02372e-11 1.02356e-09 3.04545e-10 -2.90554 0.965183 -0.102902 -3.02461e-11 1.02356e-09 3.04543e-10 -10.2786 0.731801 -0.0259123 -3.02339e-11 1.02356e-09 3.04534e-10 -2.22167 -0.733487 0.20892 -2.03217e-16 0.0 -3.88251e-19 -0.784454 -8.06554 1.26485 -0.00603906 18.2765 0.207822 -0.513046 6.5119 3.39495 2.03217e-16 0.0 3.88251e-19 -1.95899 -8.03396 -0.958883 0.0266672 6.27862 0.0223865 0.479603 1.2925 -0.179981
12.2388 83.3063 -92.968 4.8802 -7.7426 2.5052 -3.82159 3.09374 0.844382 0.406515 -0.0381731 0.140996 -1.55991 0.178134 -0.380652 0.136635 -6.52801 -0.316513 -0.0 0.0 0.0 -0.0 0.0 0.0 -1.58899e-13 -3.81688e-14 8.01972e-14 44.3245 5.11701 -6.38723 -8.76065 -4.2646 14.44 -0.00150642 2.31434 0.325243 1.24889e-09 4.87696e-11 1.16327e-09 2.16245e-09 8.28904e-11 2.00607e-09 1.24889e-09 4.87708e-11 1.16327e-09 7.73091 5.47488 0.417314 1.24889e-09 4.8771e-11 1.16328e-09 2.90554 0.965183 0.102902 1.2489e-09 4.87697e-11 1.16328e-09 10.2786 0.731801 0.0259123 1.24888e-09 4.87704e-11 1.16329e-09 2.22167 -0.733487 -0.20892 -1.58993e-13 -3.8168e-14 8.00139e-14 -29.8361 23.4177 6.77637 27.7964 -28.6625 -34.5653 0.00387919 -3.76573 0.529154 -6.29736e-11 2.14005e-09 6.47308e-10 -1.14581e-10 3.6868e-09 1.11987e-09 -6.29762e-11 2.14006e-09 6.47311e-10 -7.73091 5.47488 -0.417314 -6.29705e-11 2.14005e-09 6.47306e-10 -2.90554 0.965183 -0.102902 -6.29815e-11 2.14006e-09 6.47303e-10 -10.2786 0.731801 -0.0259123 -6.29693e-11 2.14006e-09 6.47295e-10 -2.22167 -0.733487 0.20892 -2.03217e-16 0.0 -3.88251e-19 -2.45998 -11.64 2.74118 -0.160705 34.5772 0.502748 -1.10338 11.471 7.04827 2.03217e-16 0.0 3.88251e-19 -4.15784 -14.1391 -2.03289 0.0610307 14.3962 -0.0311211 0.426293 -1.21207 -0.225248
12.3458 83.3597 -92.0511 5.2329 -7.2968 2.3693 -5.88776 4.51059 1.20796 0.518958 -0.0526828 0.187272 -2.25656 0.275374 -0.549606 0.14492 -9.50652 -0.462188 -0.0 0.0 0.0 -0.0 0.0 0.0 -2.31465e-13 -5.36736e-14 1.12852e-13 65.0339 7.38924 -9.40291 -12.0546 -5.98413 21.0985 -0.0110755 3.39031 0.476903 1.82542e-09 6.86167e-11 1.63424e-09 3.16034e-09 1.16499e-10 2.81787e-09 1.82542e-09 6.86187e-11 1.63424e-09 7.73091 5.47488 0.417314 1.82542e-09 6.86187e-11 1.63425e-09 2.90554 0.965183 0.102902 1.82542e-09 6.86167e-11 1.63425e-09 10.2786 0.731801 0.0259123 1.82541e-09 6.86163e-11 1.63426e-09 2.22167 -0.733487 -0.20892 -2.31557e-13 -5.36724e-14 1.12721e-13 -45.7261 33.8731 10.9553 28.844 -33.1509 -55.3644 0.0289292 -5.48448 0.772584 -6.35543e-11 3.07074e-09 9.14958e-10 -1.17965e-10 5.29064e-09 1.58298e-09 -6.35557e-11 3.07074e-09 9.14963e-10 -7.73091 5.47488 -0.417314 -6.35503e-11 3.07073e-09 9.14957e-10 -2.90554 0.965183 -0.102902 -6.35629e-11 3.07074e-09 9.14953e-10 -10.2786 0.731801 -0.0259123 -6.3551e-11 3.07074e-09 9.14945e-10 -2.22167 -0.733487 0.20892 -2.03217e-16 0.0 -3.88251e-19 -3.82074 -14.9622 4.05671 -0.523709 49.2577 0.931709 -2.14022 15.6891 10.3108 2.03217e-16 0.0 3.88251e-19 -6.35752 -19.4943 -3.06814 0.104832 21.6346 -0.0837732 0.375317 -3.50604 -0.268695
12.4055 83.3653 -91.1762 5.2561 -6.8889 2.4322 -7.36867 5.49095 1.39863 0.605279 -0.0591331 0.200756 -2.67798 0.399875 -0.647316 0.0332248 -11.5339 -0.555605 -0.0 0.0 0.0 -0.0 0.0 0.0 -2.83408e-13 -5.72513e-14 1.20861e-13 79.6528 8.86221 -11.7003 -14.0695 -7.01072 25.6941 -0.0216402 4.19579 0.590747 2.21958e-09 7.3272e-11 1.73521e-09 3.84135e-09 1.23876e-10 2.9903e-09 2.21958e-09 7.32744e-11 1.7352e-09 7.73091 5.47488 0.417314 2.21958e-09 7.32744e-11 1.73522e-09 2.90554 0.965183 0.102902 2.21958e-09 7.32721e-11 1.73522e-09 10.2786 0.731801 0.0259123 2.21957e-09 7.32712e-11 1.73523e-09 2.22167 -0.733487 -0.20892 -2.83494e-13 -5.725e-14 1.20762e-13 -58.0509 40.9211 14.7924 28.1008 -31.2507 -69.2493 0.0546615 -6.65698 0.939852 1.62495e-11 3.53688e-09 9.9483e-10 1.92642e-11 6.09587e-09 1.72147e-09 1.62487e-11 3.53689e-09 9.94836e-10 -7.73091 5.47488 -0.417314 1.62538e-11 3.53687e-09 9.9483e-10 -2.90554 0.965183 -0.102902 1.62405e-11 3.53688e-09 9.94825e-10 -10.2786 0.731801 -0.0259123 1.62518e-11 3.53688e-09 9.94817e-10 -2.22167 -0.733487 0.20892 -2.03217e-16 0.0 -3.88251e-19 -4.74979 -17.6818 4.88906 -1.06646 59.8903 1.48723 -3.00899 18.2753 12.2719 2.03217e-16 0.0 3.88251e-19 -8.1067 -22.9956 -3.86829 0.143022 26.6748 -0.127499 0.33718 -5.27354 -0.306812
12.4097 83.3696 -90.2592 5.0537 -6.7236 2.4528 -8.01678 5.86159 1.34428 0.64807 -0.0573094 0.167762 -2.70353 0.582671 -0.640652 -0.258975 -12.2419 -0.569714 -0.0 0.0 0.0 -0.0 0.0 0.0 -3.10217e-13 -3.79068e-14 8.34468e-14 85.4903 9.31538 -12.9529 -14.7354 -7.31677 27.343 -0.0278706 4.61455 0.650043 2.40556e-09 1.65656e-11 1.18598e-09 4.15943e-09 2.49433e-11 2.03857e-09 2.40555e-09 1.65679e-11 1.18597e-09 7.73091 5.47488 0.417314 2.40556e-09 1.65681e-11 1.18598e-09 2.90554 0.965183 0.102902 2.40556e-09 1.65662e-11 1.18598e-09 10.2786 0.731801 0.0259123 2.40555e-09 1.65658e-11 1.186e-09 2.22167 -0.733487 -0.20892 -3.10293e-13 -3.79055e-14 8.33537e-14 -63.3491 43.5624 16.7516 28.0462 -29.4643 -73.9809 0.0650305 -7.03144 0.993574 2.64177e-10 3.38948e-09 7.83198e-10 4.49778e-10 5.84805e-09 1.35616e-09 2.64176e-10 3.38949e-09 7.83205e-10 -7.73091 5.47488 -0.417314 2.6418e-10 3.38947e-09 7.83198e-10 -2.90554 0.965183 -0.102902 2.64168e-10 3.38948e-09 7.83194e-10 -10.2786 0.731801 -0.0259123 2.64178e-10 3.38948e-09 7.83187e-10 -2.22167 -0.733487 0.20892 -2.03217e-16 0.0 -3.88251e-19 -5.27204 -19.5825 4.97848 -1.49121 64.9188 1.90088 -3.07957 18.7152 12.2325 2.03217e-16 0.0 3.88251e-19 -9.02474 -23.902 -4.26159 0.158171 28.6347 -0.151582 0.32418 -6.31776 -0.311035
12.4489 83.3811 -89.3066 5.0279 -6.6215 2.3539 -8.06679 5.79671 1.11447 0.660112 -0.0494324 0.101597 -2.44755 0.806155 -0.559655 -0.675565 -12.0071 -0.526346 -0.0 0.0 0.0 -0.0 0.0 0.0 -3.18895e-13 -2.48551e-15 1.41075e-14 84.9904 9.05727 -13.446 -14.5264 -7.17409 26.8744 -0.0294618 4.75748 0.670268 2.44059e-09 -8.20613e-11 1.78615e-10 4.21443e-09 -1.46612e-10 2.94764e-10 2.44059e-09 -8.20596e-11 1.78609e-10 7.73091 5.47488 0.417314 2.44059e-09 -8.20591e-11 1.78615e-10 2.90554 0.965183 0.102902 2.44059e-09 -8.20601e-11 1.78618e-10 10.2786 0.731801 0.0259123 2.44058e-09 -8.20593e-11 1.7863e-10 2.22167 -0.733487 -0.20892 -3.18957e-13 -2.48459e-15 1.40019e-14 -62.9575 43.1952 16.8373 28.0434 -29.7091 -73.5197 0.0611121 -6.83754 0.965864 6.29545e-10 2.80208e-09 3.64711e-10 1.08519e-09 4.84494e-09 6.33329e-10 6.29543e-10 2.80209e-09 3.64718e-10 -7.73091 5.47488 -0.417314 6.29548e-10 2.80208e-09 3.64712e-10 -2.90554 0.965183 -0.102902 6.29537e-10 2.80208e-09 3.64709e-10 -10.2786 0.731801 -0.0259123 6.29545e-10 2.80208e-09 3.64702e-10 -2.22167 -0.733487 0.20892 -2.03217e-16 0.0 -3.88251e-19 -5.56275 -20.9031 4.51603 -1.5923 65.944 1.9859 -2.53233 17.631 10.7402 2.03217e-16 0.0 3.88251e-19 -9.29122 -22.9606 -4.33557 0.152348 28.3947 -0.15924 0.330427 -6.8447 -0.292023
